<?xml version="1.0" standalone="no"?>
<!DOCTYPE svg PUBLIC "-//W3C//DTD SVG 20010904//EN"
 "http://www.w3.org/TR/2001/REC-SVG-20010904/DTD/svg10.dtd">
<svg version="1.0" xmlns="http://www.w3.org/2000/svg"
 width="612.000000pt" height="612.000000pt" viewBox="0 0 612.000000 612.000000"
 preserveAspectRatio="xMidYMid meet">
<metadata>
Created by potrace 1.16, written by Peter Selinger 2001-2019
</metadata>
<g transform="translate(0.000000,612.000000) scale(0.100000,-0.100000)"
fill="#000000" stroke="none">
<path d="M2835 5254 c-16 -2 -66 -9 -110 -15 -877 -116 -1642 -711 -1970
-1534 -230 -574 -240 -1199 -30 -1782 53 -147 173 -383 263 -518 104 -157 211
-283 362 -429 l123 -118 24 118 c47 233 138 449 266 631 34 49 114 140 177
203 380 380 914 541 1440 434 604 -124 1099 -609 1228 -1204 11 -52 24 -115
29 -140 l9 -45 155 155 c268 267 438 523 572 860 182 456 219 1011 101 1495
-64 259 -198 567 -340 780 -384 576 -969 958 -1653 1082 -113 20 -177 25 -376
28 -132 2 -253 1 -270 -1z m430 -1318 c277 -76 497 -293 577 -573 32 -112 32
-314 0 -426 -80 -279 -290 -489 -569 -569 -112 -32 -314 -32 -426 0 -300 86
-519 321 -584 626 -25 116 -14 288 26 405 41 123 97 217 184 307 114 121 256
201 419 239 81 18 290 13 373 -9z"/>
</g>
</svg>
